<?xml version="1.0" encoding="UTF-8"?>
<svg xmlns="http://www.w3.org/2000/svg" xmlns:xlink="http://www.w3.org/1999/xlink" width="14pt" height="14pt" viewBox="0 0 14 14" version="1.1">
<g id="surface1">
<path style=" stroke:none;fill-rule:nonzero;fill:rgb(99.607843%,63.137255%,55.294118%);fill-opacity:1;" d="M 12.777344 3.578125 C 12.164062 2.53125 11.332031 1.695312 10.285156 1.085938 C 9.234375 0.472656 8.089844 0.167969 6.847656 0.167969 C 5.605469 0.167969 4.457031 0.472656 3.410156 1.085938 C 2.359375 1.695312 1.53125 2.53125 0.917969 3.578125 C 0.304688 4.628906 0 5.773438 0 7.015625 C 0 8.507812 0.433594 9.851562 1.304688 11.042969 C 2.175781 12.234375 3.300781 13.054688 4.679688 13.515625 C 4.839844 13.542969 4.960938 13.523438 5.039062 13.453125 C 5.113281 13.378906 5.152344 13.292969 5.152344 13.183594 C 5.152344 13.167969 5.152344 13.007812 5.148438 12.703125 C 5.144531 12.398438 5.144531 12.136719 5.144531 11.910156 L 4.941406 11.945312 C 4.808594 11.96875 4.640625 11.980469 4.445312 11.976562 C 4.246094 11.976562 4.039062 11.953125 3.824219 11.914062 C 3.609375 11.875 3.410156 11.789062 3.226562 11.648438 C 3.042969 11.507812 2.914062 11.324219 2.835938 11.097656 L 2.746094 10.894531 C 2.6875 10.757812 2.589844 10.605469 2.464844 10.4375 C 2.335938 10.273438 2.207031 10.160156 2.078125 10.097656 L 2.015625 10.054688 C 1.972656 10.023438 1.933594 9.988281 1.898438 9.949219 C 1.863281 9.90625 1.835938 9.863281 1.820312 9.824219 C 1.800781 9.78125 1.816406 9.75 1.863281 9.722656 C 1.910156 9.695312 1.996094 9.679688 2.121094 9.679688 L 2.300781 9.707031 C 2.417969 9.730469 2.566406 9.800781 2.742188 9.921875 C 2.914062 10.039062 3.0625 10.195312 3.175781 10.382812 C 3.3125 10.628906 3.472656 10.816406 3.667969 10.945312 C 3.859375 11.070312 4.058594 11.132812 4.253906 11.132812 C 4.449219 11.132812 4.617188 11.117188 4.761719 11.089844 C 4.902344 11.058594 5.039062 11.015625 5.164062 10.957031 C 5.214844 10.558594 5.363281 10.25 5.597656 10.035156 C 5.261719 10 4.953125 9.949219 4.683594 9.875 C 4.414062 9.804688 4.132812 9.6875 3.847656 9.527344 C 3.558594 9.367188 3.320312 9.167969 3.128906 8.929688 C 2.9375 8.695312 2.78125 8.382812 2.660156 7.996094 C 2.539062 7.609375 2.480469 7.164062 2.480469 6.65625 C 2.480469 5.9375 2.714844 5.324219 3.183594 4.820312 C 2.964844 4.28125 2.984375 3.671875 3.246094 3 C 3.417969 2.949219 3.671875 2.988281 4.011719 3.125 C 4.351562 3.257812 4.597656 3.371094 4.753906 3.464844 C 4.914062 3.5625 5.039062 3.640625 5.136719 3.707031 C 5.6875 3.550781 6.257812 3.472656 6.847656 3.472656 C 7.4375 3.472656 8.007812 3.550781 8.558594 3.707031 L 8.898438 3.492188 C 9.128906 3.351562 9.402344 3.21875 9.71875 3.101562 C 10.035156 2.980469 10.273438 2.949219 10.441406 3 C 10.707031 3.671875 10.734375 4.28125 10.511719 4.820312 C 10.980469 5.324219 11.21875 5.9375 11.21875 6.65625 C 11.21875 7.164062 11.15625 7.613281 11.03125 8 C 10.914062 8.390625 10.757812 8.703125 10.5625 8.9375 C 10.371094 9.171875 10.128906 9.367188 9.839844 9.527344 C 9.550781 9.6875 9.269531 9.804688 9 9.875 C 8.730469 9.949219 8.425781 10 8.085938 10.035156 C 8.394531 10.304688 8.550781 10.726562 8.550781 11.304688 L 8.550781 13.183594 C 8.550781 13.292969 8.585938 13.378906 8.664062 13.453125 C 8.738281 13.523438 8.855469 13.542969 9.015625 13.515625 C 10.394531 13.054688 11.519531 12.234375 12.386719 11.042969 C 13.257812 9.851562 13.695312 8.507812 13.695312 7.015625 C 13.695312 5.773438 13.390625 4.628906 12.777344 3.578125 Z M 12.777344 3.578125 "/>
</g>
</svg>
