<?xml version="1.0" encoding="UTF-8"?>
<svg xmlns="http://www.w3.org/2000/svg" xmlns:xlink="http://www.w3.org/1999/xlink" width="23pt" height="23pt" viewBox="0 0 23 23" version="1.1">
<g id="surface1">
<path style=" stroke:none;fill-rule:nonzero;fill:rgb(0%,47.843137%,80%);fill-opacity:1;" d="M 0 11.5 L 0 23 L 23 23 L 23 0 L 0 0 Z M 0 11.5 "/>
<path style=" stroke:none;fill-rule:nonzero;fill:rgb(100%,100%,100%);fill-opacity:1;" d="M 5.085938 11.578125 L 5.078125 12.519531 L 8.074219 12.519531 L 8.074219 21.023438 L 10.191406 21.023438 L 10.191406 12.519531 L 13.183594 12.519531 L 13.183594 11.59375 C 13.183594 11.082031 13.171875 10.65625 13.15625 10.644531 C 13.148438 10.628906 11.324219 10.625 9.117188 10.628906 L 5.097656 10.636719 Z M 5.085938 11.578125 "/>
<path style=" stroke:none;fill-rule:nonzero;fill:rgb(100%,100%,100%);fill-opacity:1;" d="M 18.558594 10.609375 C 19.144531 10.757812 19.589844 11.015625 19.996094 11.441406 C 20.207031 11.667969 20.523438 12.078125 20.546875 12.175781 C 20.554688 12.207031 19.554688 12.878906 18.949219 13.253906 C 18.925781 13.269531 18.839844 13.175781 18.742188 13.027344 C 18.445312 12.597656 18.136719 12.410156 17.660156 12.378906 C 16.964844 12.332031 16.515625 12.695312 16.519531 13.304688 C 16.519531 13.484375 16.542969 13.589844 16.617188 13.738281 C 16.769531 14.054688 17.054688 14.242188 17.949219 14.628906 C 19.59375 15.339844 20.300781 15.804688 20.738281 16.472656 C 21.226562 17.210938 21.335938 18.394531 21.003906 19.273438 C 20.640625 20.230469 19.734375 20.882812 18.460938 21.097656 C 18.066406 21.164062 17.132812 21.15625 16.707031 21.078125 C 15.785156 20.914062 14.90625 20.457031 14.367188 19.859375 C 14.15625 19.625 13.742188 19.015625 13.769531 18.972656 C 13.78125 18.957031 13.875 18.898438 13.980469 18.835938 C 14.082031 18.777344 14.46875 18.554688 14.835938 18.34375 L 15.496094 17.960938 L 15.632812 18.164062 C 15.828125 18.460938 16.25 18.867188 16.507812 19 C 17.242188 19.386719 18.25 19.332031 18.746094 18.886719 C 18.957031 18.695312 19.042969 18.492188 19.042969 18.199219 C 19.042969 17.929688 19.011719 17.8125 18.871094 17.613281 C 18.695312 17.359375 18.328125 17.140625 17.292969 16.695312 C 16.105469 16.183594 15.59375 15.863281 15.128906 15.359375 C 14.855469 15.070312 14.601562 14.601562 14.496094 14.210938 C 14.40625 13.886719 14.386719 13.070312 14.457031 12.742188 C 14.699219 11.597656 15.566406 10.796875 16.8125 10.558594 C 17.21875 10.484375 18.160156 10.511719 18.558594 10.609375 Z M 18.558594 10.609375 "/>
</g>
</svg>
