<?xml version="1.0" encoding="UTF-8"?>
<svg xmlns="http://www.w3.org/2000/svg" xmlns:xlink="http://www.w3.org/1999/xlink" width="18pt" height="24pt" viewBox="0 0 18 24" version="1.1">
<g id="surface1">
<path style=" stroke:none;fill-rule:nonzero;fill:rgb(32.54902%,50.980392%,63.137255%);fill-opacity:1;" d="M 5.804688 18.554688 C 5.804688 18.554688 4.875 19.085938 6.464844 19.265625 C 8.390625 19.480469 9.371094 19.449219 11.492188 19.054688 C 11.492188 19.054688 12.050781 19.398438 12.828125 19.699219 C 8.074219 21.707031 2.070312 19.582031 5.804688 18.554688 "/>
<path style=" stroke:none;fill-rule:nonzero;fill:rgb(32.54902%,50.980392%,63.137255%);fill-opacity:1;" d="M 5.222656 15.929688 C 5.222656 15.929688 4.183594 16.691406 5.773438 16.851562 C 7.828125 17.0625 9.453125 17.078125 12.261719 16.546875 C 12.261719 16.546875 12.648438 16.933594 13.261719 17.144531 C 7.511719 18.804688 1.109375 17.277344 5.222656 15.929688 "/>
<path style=" stroke:none;fill-rule:nonzero;fill:rgb(90.588235%,43.529412%,0%);fill-opacity:1;" d="M 10.121094 11.480469 C 11.292969 12.8125 9.8125 14.007812 9.8125 14.007812 C 9.8125 14.007812 12.789062 12.492188 11.421875 10.597656 C 10.144531 8.828125 9.167969 7.949219 14.464844 4.917969 C 14.464844 4.917969 6.148438 6.96875 10.121094 11.480469 "/>
<path style=" stroke:none;fill-rule:nonzero;fill:rgb(32.54902%,50.980392%,63.137255%);fill-opacity:1;" d="M 16.410156 20.492188 C 16.410156 20.492188 17.09375 21.050781 15.652344 21.484375 C 12.90625 22.304688 4.230469 22.550781 1.820312 21.515625 C 0.953125 21.144531 2.578125 20.628906 3.089844 20.519531 C 3.625 20.40625 3.929688 20.425781 3.929688 20.425781 C 2.964844 19.757812 -2.300781 21.742188 1.253906 22.308594 C 10.945312 23.859375 18.921875 21.613281 16.410156 20.492188 "/>
<path style=" stroke:none;fill-rule:nonzero;fill:rgb(32.54902%,50.980392%,63.137255%);fill-opacity:1;" d="M 6.25 13.210938 C 6.25 13.210938 1.835938 14.246094 4.6875 14.621094 C 5.890625 14.78125 8.289062 14.746094 10.527344 14.558594 C 12.351562 14.410156 14.1875 14.085938 14.1875 14.085938 C 14.1875 14.085938 13.542969 14.355469 13.078125 14.671875 C 8.59375 15.835938 -0.0625 15.292969 2.429688 14.105469 C 4.535156 13.097656 6.25 13.210938 6.25 13.210938 "/>
<path style=" stroke:none;fill-rule:nonzero;fill:rgb(32.54902%,50.980392%,63.137255%);fill-opacity:1;" d="M 14.167969 17.578125 C 18.722656 15.242188 16.617188 13 15.148438 13.300781 C 14.789062 13.375 14.625 13.4375 14.625 13.4375 C 14.625 13.4375 14.761719 13.230469 15.015625 13.140625 C 17.925781 12.132812 20.160156 16.117188 14.078125 17.695312 C 14.078125 17.695312 14.148438 17.632812 14.167969 17.578125 "/>
<path style=" stroke:none;fill-rule:nonzero;fill:rgb(90.588235%,43.529412%,0%);fill-opacity:1;" d="M 11.421875 0.0273438 C 11.421875 0.0273438 13.945312 2.515625 9.027344 6.34375 C 5.085938 9.417969 8.128906 11.167969 9.027344 13.167969 C 6.726562 11.121094 5.035156 9.316406 6.167969 7.640625 C 7.832031 5.175781 12.441406 3.980469 11.421875 0.0273438 "/>
<path style=" stroke:none;fill-rule:nonzero;fill:rgb(32.54902%,50.980392%,63.137255%);fill-opacity:1;" d="M 6.699219 23.90625 C 11.070312 24.183594 17.789062 23.753906 17.945312 21.710938 C 17.945312 21.710938 17.640625 22.488281 14.332031 23.101562 C 10.601562 23.792969 5.996094 23.714844 3.265625 23.269531 C 3.265625 23.269531 3.824219 23.726562 6.699219 23.90625 "/>
</g>
</svg>
